<?xml version="1.0" encoding="UTF-8"?>
<svg id="Ebene_2" data-name="Ebene 2" xmlns="http://www.w3.org/2000/svg" viewBox="66.65 7 1113.47 1023.33">
  <defs>
    <style>
      .cls-1 {
        stroke: #000;
        stroke-miterlimit: 10;
      }
    </style>
  </defs>
  <path class="cls-1" d="m495.67,699.67v61.55c-11.44-4.1-22.63-8.74-33.54-13.88-6.11-2.88-12.13-5.93-18.06-9.12-.28-.14-.55-.3-.83-.45-9.53-5.16-18.83-10.71-27.85-16.66-7.86-5.16-15.5-10.6-22.92-16.33-6.34-4.86-12.53-9.93-18.53-15.18-1.3-1.12-2.58-2.26-3.86-3.43-10.26-9.18-20.01-18.93-29.21-29.19-1.16-1.28-2.3-2.56-3.43-3.86-5.26-6.01-10.34-12.19-15.2-18.55-5.71-7.41-11.17-15.05-16.33-22.89-5.93-9-11.48-18.28-16.64-27.79-.16-.32-.33-.63-.49-.93-3.19-5.93-6.24-11.94-9.1-18.04-5.18-10.91-9.83-22.1-13.92-33.56-2.28-6.3-4.39-12.7-6.32-19.16l.37-.37-.71-.71c-3.05-10.28-5.69-20.74-7.88-31.35-1.89-9.12-3.45-18.34-4.65-27.67-1.04-7.9-1.83-15.87-2.36-23.93-.12-1.73-.22-3.47-.32-5.22-.37-6.83-.55-13.71-.55-20.64s.18-13.73.55-20.5c.08-1.75.18-3.49.3-5.22.55-8.06,1.34-16.03,2.36-23.95,1.2-9.32,2.76-18.55,4.63-27.65h58.71c-1.2,4.88-2.28,9.81-3.25,14.77-2.34,12.05-4.04,24.34-5.02,36.83-.55,7.09-.89,14.24-.98,21.45-.02,1.42-.02,2.86-.02,4.27s0,2.93.02,4.41c.1,7.21.43,14.36,1,21.45.98,12.49,2.68,24.78,5.02,36.81.98,4.96,2.07,9.91,3.27,14.79,1.02,4.21,2.15,8.43,3.37,12.58,2.84,9.89,6.14,19.58,9.91,29.05,1.32,3.35,2.7,6.68,4.14,9.97,4.08,9.39,8.59,18.57,13.53,27.47,2.09,3.82,4.29,7.6,6.56,11.32,2.62,4.33,5.34,8.61,8.17,12.8,6.91,10.28,14.42,20.17,22.43,29.56,4.65,5.44,9.45,10.71,14.44,15.83,2.05,2.09,4.12,4.16,6.2,6.2,5.12,4.98,10.42,9.79,15.85,14.44,9.39,8.02,19.26,15.5,29.54,22.41,4.21,2.84,8.49,5.55,12.82,8.19,3.72,2.26,7.5,4.45,11.34,6.56,8.9,4.92,18.06,9.43,27.44,13.51Z" fill="#FFFFFF"/>
  <path class="cls-1" d="m879.43,118.57h-98.08c-8.98-4.98-18.22-9.53-27.69-13.65-3.27-1.42-6.56-2.78-9.89-4.1-9.53-3.78-19.3-7.11-29.27-9.97-4.12-1.2-8.27-2.3-12.45-3.31-4.86-1.2-9.77-2.28-14.71-3.27-12.07-2.36-24.38-4.06-36.89-5.02-7.11-.57-14.3-.91-21.53-1-1.42-.02-2.84-.02-4.25-.02s-2.86,0-4.27.02c-7.23.1-14.42.43-21.53,1-12.51.97-24.82,2.68-36.89,5.02-4.94.98-9.85,2.07-14.71,3.27-4.18,1-8.33,2.11-12.45,3.31-9.97,2.86-19.73,6.2-29.27,9.97-3.33,1.32-6.62,2.68-9.89,4.1-9.47,4.12-18.71,8.67-27.67,13.65h-96.27c6.05-5.31,14.37-13.88,20.74-18.77,7.39-5.69,15.01-11.13,22.83-16.27,8.96-5.89,18.18-11.42,27.65-16.56h1.12v-.61c5.89-3.17,11.88-6.2,17.96-9.06,10.93-5.18,22.16-9.85,33.64-13.94,6.28-2.28,12.64-4.37,19.08-6.3l.45.45.87-.87c10.22-3.03,20.62-5.63,31.2-7.82,9.08-1.87,18.28-3.43,27.59-4.63,7.94-1.04,15.93-1.83,24.01-2.36,1.77-.12,3.53-.24,5.3-.32,6.78-.37,13.63-.55,20.5-.55s13.69.18,20.46.53c1.77.1,3.55.22,5.32.32,8.07.55,16.07,1.34,24.01,2.38,9.32,1.2,18.51,2.76,27.59,4.63,10.58,2.17,20.98,4.79,31.2,7.82l.87.87.47-.47c6.42,1.93,12.78,4.04,19.06,6.3,11.48,4.12,22.71,8.78,33.64,13.96,6.09,2.86,12.07,5.87,17.96,9.06v.61h1.14c9.47,5.14,18.69,10.67,27.65,16.56,7.8,5.14,15.42,10.56,22.81,16.27,6.38,4.88,12.59,9.99,18.63,15.26,1.32,1.16,2.64,2.32,3.94,3.51Z" fill="#FFFFFF"/>
  <path class="cls-1" d="m1005.99,402.29c0,6.93-.18,13.81-.55,20.64-.1,1.75-.2,3.49-.32,5.22-.53,8.06-1.32,16.03-2.36,23.93-1.2,9.34-2.76,18.55-4.65,27.67-2.19,10.62-4.83,21.07-7.88,31.35l-.71.71.37.37c-1.93,6.46-4.04,12.86-6.32,19.16-4.1,11.46-8.74,22.65-13.92,33.56-2.86,6.11-5.91,12.11-9.1,18.04h-.49v.93c-5.16,9.51-10.71,18.79-16.64,27.79-5.16,7.84-10.62,15.48-16.33,22.89-4.86,6.36-9.95,12.55-15.2,18.55-1.12,1.3-2.26,2.58-3.43,3.86-9.2,10.26-18.95,20.01-29.21,29.19-1.26,1.16-2.54,2.28-3.84,3.43-6.01,5.26-12.21,10.32-18.55,15.18-7.43,5.73-15.07,11.17-22.91,16.33-9.02,5.93-18.32,11.5-27.85,16.66h-.85v.45c-5.93,3.21-11.95,6.24-18.06,9.12-10.91,5.16-22.1,9.81-33.54,13.9v-61.57c9.39-4.08,18.55-8.59,27.45-13.51,3.82-2.11,7.6-4.29,11.32-6.56,4.33-2.62,8.63-5.36,12.82-8.19,10.28-6.91,20.15-14.4,29.54-22.43,5.46-4.63,10.73-9.43,15.85-14.42,2.09-2.05,4.18-4.12,6.2-6.2,4.98-5.12,9.81-10.42,14.44-15.85,8.02-9.39,15.52-19.26,22.43-29.54,2.82-4.2,5.55-8.47,8.19-12.8,2.25-3.72,4.43-7.5,6.54-11.32,4.92-8.9,9.45-18.08,13.53-27.47,1.44-3.29,2.82-6.62,4.14-9.97,3.74-9.47,7.07-19.16,9.91-29.05,1.2-4.16,2.32-8.37,3.37-12.58,1.2-4.88,2.28-9.83,3.27-14.79,2.34-12.03,4.04-24.32,5.02-36.81.57-7.09.91-14.24,1-21.45.02-1.48.02-2.93.02-4.41s0-2.86-.02-4.27c-.1-7.21-.43-14.36-.98-21.45-.98-12.49-2.68-24.78-5.02-36.83-.98-4.96-2.07-9.89-3.27-14.77h58.73c1.87,9.1,3.43,18.34,4.63,27.65,1.02,7.92,1.81,15.89,2.36,23.95.12,1.73.22,3.47.3,5.22.37,6.78.55,13.63.55,20.5Z" fill="#FFFFFF"/>
  <path class="cls-1" d="m1112.26,170.17l-49.02,49.02-2.58,2.58-25.58,25.58-9.06,9.08-14.36,14.34-2.6,2.6h-150.76c-.47-.87-.95-1.71-1.44-2.56v2.56h-151.18c-1.2-.77-2.4-1.52-3.62-2.23v157.01h203.8l2.6,2.6v-2.6h18.79l-45.42,45.42-1.75,1.77-4.43,4.41-32.06,32.06-19.54,19.54h-33.91l-.22-.24c-.06.08-.12.16-.2.24h-87.66v413.87l-4.41,4.43-36.49,36.48-10.69,10.69-25.78,25.8-25.8-25.8-10.69-10.69-36.48-36.48-4.43-4.43v-413.87h-87.66c-.08-.08-.14-.16-.18-.24l-.24.24h-33.91l-19.52-19.52-32.08-32.08-4.41-4.41-1.77-1.77-26.63-26.63-8.09-8.09-10.69-10.69h225.19v-154.78h-154.8v-2.56c-.49.85-.97,1.69-1.44,2.56h-150.76l-2.58-2.58-14.36-14.36-9.1-9.1-25.56-25.56-2.58-2.58-49.02-49.02h975.2Z" fill="#FFFFFF"/>
</svg>