<?xml version="1.0" encoding="UTF-8"?>
<svg id="Ebene_2" data-name="Ebene 2" xmlns="http://www.w3.org/2000/svg" viewBox="0 0 873.44 776.8">
  <defs>
    <style>
      .cls-1 {
        stroke: #000;
        stroke-miterlimit: 10;
      }
    </style>
  </defs>
  <path class="cls-1" d="m559.17,612.11v31.25c-5.81-2.08-11.49-4.44-17.03-7.05-3.1-1.46-6.16-3.01-9.17-4.63-.14-.07-.28-.15-.42-.23-4.84-2.62-9.56-5.44-14.14-8.46-3.99-2.62-7.87-5.38-11.64-8.29-3.22-2.47-6.36-5.04-9.41-7.71-.66-.57-1.31-1.15-1.96-1.74-5.21-4.66-10.16-9.61-14.83-14.82-.59-.65-1.17-1.3-1.74-1.96-2.67-3.05-5.25-6.19-7.72-9.42-2.9-3.76-5.67-7.64-8.29-11.62-3.01-4.57-5.83-9.28-8.45-14.11-.08-.16-.17-.32-.25-.47-1.62-3.01-3.17-6.06-4.62-9.16-2.63-5.54-4.99-11.22-7.07-17.04-1.16-3.2-2.23-6.45-3.21-9.73l.19-.19-.36-.36c-1.55-5.22-2.89-10.53-4-15.92-.96-4.63-1.75-9.31-2.36-14.05-.53-4.01-.93-8.06-1.2-12.15-.06-.88-.11-1.76-.16-2.65-.19-3.47-.28-6.96-.28-10.48s.09-6.97.28-10.41c.04-.89.09-1.77.15-2.65.28-4.09.68-8.14,1.2-12.16.61-4.73,1.4-9.42,2.35-14.04h29.81c-.61,2.48-1.16,4.98-1.65,7.5-1.19,6.12-2.05,12.36-2.55,18.7-.28,3.6-.45,7.23-.5,10.89,0,.72,0,1.45,0,2.17s0,1.49,0,2.24c.05,3.66.22,7.29.51,10.89.5,6.34,1.36,12.58,2.55,18.69.5,2.52,1.05,5.03,1.66,7.51.52,2.14,1.09,4.28,1.71,6.39,1.44,5.02,3.12,9.94,5.03,14.75.67,1.7,1.37,3.39,2.1,5.06,2.07,4.77,4.36,9.43,6.87,13.95,1.06,1.94,2.18,3.86,3.33,5.75,1.33,2.2,2.71,4.37,4.15,6.5,3.51,5.22,7.32,10.24,11.39,15.01,2.36,2.76,4.8,5.44,7.33,8.04,1.04,1.06,2.09,2.11,3.15,3.15,2.6,2.53,5.29,4.97,8.05,7.33,4.77,4.07,9.78,7.87,15,11.38,2.14,1.44,4.31,2.82,6.51,4.16,1.89,1.15,3.81,2.26,5.76,3.33,4.52,2.5,9.17,4.79,13.93,6.86Z"/>
  <path class="cls-1" d="m754.02,317.06h-49.8c-4.56-2.53-9.25-4.84-14.06-6.93-1.66-.72-3.33-1.41-5.02-2.08-4.84-1.92-9.8-3.61-14.86-5.06-2.09-.61-4.2-1.17-6.32-1.68-2.47-.61-4.96-1.16-7.47-1.66-6.13-1.2-12.38-2.06-18.73-2.55-3.61-.29-7.26-.46-10.93-.51-.72-.01-1.44-.01-2.16-.01s-1.45,0-2.17.01c-3.67.05-7.32.22-10.93.51-6.35.49-12.6,1.36-18.73,2.55-2.51.5-5,1.05-7.47,1.66-2.12.51-4.23,1.07-6.32,1.68-5.06,1.45-10.02,3.15-14.86,5.06-1.69.67-3.36,1.36-5.02,2.08-4.81,2.09-9.5,4.4-14.05,6.93h-48.88c3.07-2.7,7.3-7.05,10.53-9.53,3.75-2.89,7.62-5.65,11.59-8.26,4.55-2.99,9.23-5.8,14.04-8.41h.57v-.31c2.99-1.61,6.03-3.15,9.12-4.6,5.55-2.63,11.25-5,17.08-7.08,3.19-1.16,6.42-2.22,9.69-3.2l.23.23.44-.44c5.19-1.54,10.47-2.86,15.84-3.97,4.61-.95,9.28-1.74,14.01-2.35,4.03-.53,8.09-.93,12.19-1.2.9-.06,1.79-.12,2.69-.16,3.44-.19,6.92-.28,10.41-.28s6.95.09,10.39.27c.9.05,1.8.11,2.7.16,4.1.28,8.16.68,12.19,1.21,4.73.61,9.4,1.4,14.01,2.35,5.37,1.1,10.65,2.43,15.84,3.97l.44.44.24-.24c3.26.98,6.49,2.05,9.68,3.2,5.83,2.09,11.53,4.46,17.08,7.09,3.09,1.45,6.13,2.98,9.12,4.6v.31h.58c4.81,2.61,9.49,5.42,14.04,8.41,3.96,2.61,7.83,5.36,11.58,8.26,3.24,2.48,6.39,5.07,9.46,7.75.67.59,1.34,1.18,2,1.78Z"/>
  <path class="cls-1" d="m818.28,461.12c0,3.52-.09,7.01-.28,10.48-.05.89-.1,1.77-.16,2.65-.27,4.09-.67,8.14-1.2,12.15-.61,4.74-1.4,9.42-2.36,14.05-1.11,5.39-2.45,10.7-4,15.92l-.36.36.19.19c-.98,3.28-2.05,6.53-3.21,9.73-2.08,5.82-4.44,11.5-7.07,17.04-1.45,3.1-3,6.15-4.62,9.16h-.25v.47c-2.62,4.83-5.44,9.54-8.45,14.11-2.62,3.98-5.39,7.86-8.29,11.62-2.47,3.23-5.05,6.37-7.72,9.42-.57.66-1.15,1.31-1.74,1.96-4.67,5.21-9.62,10.16-14.83,14.82-.64.59-1.29,1.16-1.95,1.74-3.05,2.67-6.2,5.24-9.42,7.71-3.77,2.91-7.65,5.67-11.63,8.29-4.58,3.01-9.3,5.84-14.14,8.46h-.43v.23c-3.01,1.63-6.07,3.17-9.17,4.63-5.54,2.62-11.22,4.98-17.03,7.06v-31.26c4.77-2.07,9.42-4.36,13.94-6.86,1.94-1.07,3.86-2.18,5.75-3.33,2.2-1.33,4.38-2.72,6.51-4.16,5.22-3.51,10.23-7.31,15-11.39,2.77-2.35,5.45-4.79,8.05-7.32,1.06-1.04,2.12-2.09,3.15-3.15,2.53-2.6,4.98-5.29,7.33-8.05,4.07-4.77,7.88-9.78,11.39-15,1.43-2.13,2.82-4.3,4.16-6.5,1.14-1.89,2.25-3.81,3.32-5.75,2.5-4.52,4.8-9.18,6.87-13.95.73-1.67,1.43-3.36,2.1-5.06,1.9-4.81,3.59-9.73,5.03-14.75.61-2.11,1.18-4.25,1.71-6.39.61-2.48,1.16-4.99,1.66-7.51,1.19-6.11,2.05-12.35,2.55-18.69.29-3.6.46-7.23.51-10.89.01-.75.01-1.49.01-2.24s0-1.45-.01-2.17c-.05-3.66-.22-7.29-.5-10.89-.5-6.34-1.36-12.58-2.55-18.7-.5-2.52-1.05-5.02-1.66-7.5h29.82c.95,4.62,1.74,9.31,2.35,14.04.52,4.02.92,8.07,1.2,12.16.06.88.11,1.76.15,2.65.19,3.44.28,6.92.28,10.41Z"/>
  <path class="cls-1" d="m872.24,343.26l-24.89,24.89-1.31,1.31-12.99,12.99-4.6,4.61-7.29,7.28-1.32,1.32h-76.55c-.24-.44-.48-.87-.73-1.3v1.3h-76.76c-.61-.39-1.22-.77-1.84-1.13v79.72h103.48l1.32,1.32v-1.32h9.54l-23.06,23.06-.89.9-2.25,2.24-16.28,16.28-9.92,9.92h-17.22l-.11-.12s-.06.08-.1.12h-44.51v210.14l-2.24,2.25-18.53,18.52-5.43,5.43-13.09,13.1-13.1-13.1-5.43-5.43-18.52-18.52-2.25-2.25v-210.14h-44.51s-.07-.08-.09-.12l-.12.12h-17.22l-9.91-9.91-16.29-16.29-2.24-2.24-.9-.9-13.52-13.52-4.11-4.11-5.43-5.43h114.34v-78.59h-78.6v-1.3c-.25.43-.49.86-.73,1.3h-76.55l-1.31-1.31-7.29-7.29-4.62-4.62-12.98-12.98-1.31-1.31-24.89-24.89h495.15Z"/>
</svg>